<?xml version="1.0" encoding="utf-8"?>
<!-- Generator: Adobe Illustrator 22.0.1, SVG Export Plug-In . SVG Version: 6.00 Build 0)  -->
<svg version="1.1" xmlns="http://www.w3.org/2000/svg" xmlns:xlink="http://www.w3.org/1999/xlink" x="0px" y="0px"
	 viewBox="0 0 1205.4 221.7" style="enable-background:new 0 0 1205.4 221.7;" xml:space="preserve">
<style type="text/css">
	.st0{fill:#464646;}
	.st1{fill:#86AF49;}
	.st2{fill:#FFFFFF;}
	.st3{fill:none;}
</style>
<g id="Background">
	<g id="Frame">
	</g>
	<g id="Text">
	</g>
</g>
<g id="color">
	<g>
	</g>
	<g>
		<path class="st1" d="M503.1,37.7c0,14.5-10.3,24.8-24.8,24.8s-24.8-10.3-24.8-24.8s10.4-24.8,24.8-24.8S503.1,23.3,503.1,37.7z
			 M500.5,198.9h-44.3V76h44.3V198.9z"/>
		<path class="st1" d="M582.1,76h32.5v37.1h-32.5V149c0,7.7,5.3,12.8,13.7,12.8c5,0.1,10-1.1,14.5-3.4l10.6,34.7
			c-8.8,5.5-19,8.3-29.4,8.2c-33.2,0-53.7-18.8-53.7-51.8v-36.4h-20.7V76h20.7V35.8h44.3V76z"/>
		<path class="st1" d="M408.2,103c7.3-6,14.2-16.6,14.2-32.3c0-30.8-22.6-48.9-56.8-48.9h-62.7v177.1h74.3c31.8,0,59.2-18.8,59.2-53
			C436.4,122.5,424.6,110.2,408.2,103z M347.6,93.5v-36c0-0.8,0.7-1.4,1.5-1.3c0.2,0,0.4,0.1,0.5,0.1l29.6,18
			c0.7,0.4,0.9,1.3,0.5,1.9c-0.1,0.2-0.3,0.4-0.5,0.5l-29.6,18c-0.7,0.3-1.5,0-1.9-0.7C347.6,93.8,347.6,93.7,347.6,93.5z
			 M386.1,145.3L351,166.6c-0.7,0.4-1.6,0.2-2.1-0.5c-0.2-0.3-0.3-0.6-0.2-0.9v-42.7c-0.1-0.8,0.5-1.6,1.4-1.6
			c0.3,0,0.7,0.1,0.9,0.2l35.1,21.4c0.8,0.4,1.1,1.4,0.6,2.2C386.5,144.9,386.3,145.1,386.1,145.3z"/>
		<path class="st0" d="M248.8,52.6C224.4,3,152.3-11.2,87.8,20.9C23.2,53.1-9.3,119.4,15.1,169.1c24.4,49.7,96.5,63.9,161.1,31.7
			S273.3,102.3,248.8,52.6z M172.6,191.4c-46.9,23.3-102.5,6.3-124.4-38.1C26.4,108.9,46.7,54,93.6,30.6
			c46.9-23.3,102.5-6.3,124.4,38.1C239.7,113.2,219.4,168.1,172.6,191.4z M183.6,107.8l-81.9-50c-2.5-1.3-5.5,0.4-5.5,3.3v99.7
			c0,2.8,3,4.6,5.5,3.3l81.9-49.7C186.2,112.9,186.2,109.2,183.6,107.8z"/>
		<g>
			<path class="st1" d="M503,38.1c0,14.5-10.4,24.8-24.8,24.8s-24.8-10.4-24.8-24.8c0-14.5,10.4-24.8,24.8-24.8S503,23.7,503,38.1z
				 M500.4,199.3h-44.3V76.4h44.3V199.3z"/>
			<path class="st1" d="M582,76.4h32.5v37.1H582v35.9c0,7.7,5.3,12.8,13.7,12.8c6.5,0,11.1-1.7,14.5-3.4l10.6,34.7
				c-7,4.3-16.6,8.2-29.4,8.2c-33.2,0-53.7-18.8-53.7-51.8v-36.4H517V76.4h20.7V36.2H582V76.4z"/>
			<path class="st0" d="M788.2,62.5h-53.9v136.8h-45.8V62.5h-53.9V22.2h153.7V62.5z"/>
			<path class="st0" d="M895.9,199.3h-39.5l-2.2-12.3c-6,8.7-16.6,14.7-33,14.7c-29.6,0-44.6-21.4-44.6-55.6V76.4H821v67.2
				c0,9.9,4.3,16.6,13.5,16.6c8.9,0,14.2-5.5,17.1-10.6V76.4h44.3V199.3z"/>
			<path class="st0" d="M969.1,86.1c4.8-5.5,14.2-12,31.1-12c31.8,0,53.5,27,53.5,63.8c0,36.8-21.7,63.8-53.5,63.8
				c-16.4,0-27.7-6.5-33.7-14.9l-2.2,12.5h-39.5v-183h44.3V86.1z M969.1,123.9v28.2c3.9,6.3,9.9,11.3,19.3,11.3
				c12.3,0,20.5-9.2,20.5-25.5c0-16.4-8.2-25.5-20.5-25.5C979,112.3,972.9,117.4,969.1,123.9z"/>
			<path class="st0" d="M1190.9,135.9v12.5h-77.8c0.5,10.8,7.7,17.3,21.2,17.3c9.2,0,17.6-4.1,22.4-10.1l30.1,24.1
				c-13.5,14.9-30.1,21.9-53.5,21.9c-39,0-65-26.7-65-63.6c0-36.8,26-64.1,64.3-64.1C1172.6,74,1190.9,102.4,1190.9,135.9z
				 M1113.1,123.6h34.2c-0.2-9.6-6-18.3-16.6-18.3C1120.1,105.3,1113.4,113.8,1113.1,123.6z"/>
		</g>
	</g>
</g>
</svg>
