<svg id="52bcad26-236d-436b-bec9-4b121a52fea9" data-name="logo" xmlns="http://www.w3.org/2000/svg" viewBox="0 0 300 62"><defs><style>.a3d15c6b-5c90-4346-8642-a116880abbb4{fill:#555;}.\32 c24a52f-d4bd-4a53-90bd-b9b19b962700{fill:none;stroke:#565555;stroke-miterlimit:10;stroke-width:1.16px;}.\38 20df336-33a4-4eae-ad77-26ba422d5e07{fill:#86af49;}</style></defs><title>Logo coin</title><path class="a3d15c6b-5c90-4346-8642-a116880abbb4" d="M48.7,20.5c-4.4-9-17.4-11.6-29.1-5.7S2.1,32.5,6.5,41.5s17.4,11.6,29.1,5.7S53.1,29.5,48.7,20.5Zm-13.8,25c-8.4,4.3-18.5,1.2-22.4-6.8s-.3-18,8.1-22.2,18.6-1.1,22.5,6.9S43.4,41.3,34.9,45.5Z"/><path class="a3d15c6b-5c90-4346-8642-a116880abbb4" d="M36.9,31.6l-14.8,9a.7.7,0,0,1-1-.6V22a.7.7,0,0,1,1-.6l14.8,9A.7.7,0,0,1,36.9,31.6Z"/><path class="a3d15c6b-5c90-4346-8642-a116880abbb4" d="M183.2,29.2h-1.3V19.9h1.3Z"/><path class="a3d15c6b-5c90-4346-8642-a116880abbb4" d="M192.8,29.3h0L187,23v6.2h-1.3V19.8h.1l5.7,6.3V19.9h1.3Z"/><path class="a3d15c6b-5c90-4346-8642-a116880abbb4" d="M202.3,21.1h-3.2v8.1h-1.3V21.1h-3.3V19.9h7.8Z"/><path class="a3d15c6b-5c90-4346-8642-a116880abbb4" d="M209.8,21.1h-4.5v2.8h3.9v1.2h-3.9V28h4.6v1.2H204V19.9h5.8Z"/><path class="a3d15c6b-5c90-4346-8642-a116880abbb4" d="M218.1,22.8a2.7,2.7,0,0,1-1.9,2.6l2.3,3.8H217l-2.2-3.5H213v3.5h-1.2V19.9h3C216.7,19.9,218.1,20.9,218.1,22.8ZM213,21.1v3.4h1.7c1.3,0,2.1-.6,2.1-1.7s-.8-1.7-2.1-1.7Z"/><path class="a3d15c6b-5c90-4346-8642-a116880abbb4" d="M226.6,22.9c0,1.8-1.3,2.9-3.2,2.9h-1.9v3.4h-1.3V19.9h3.2A2.9,2.9,0,0,1,226.6,22.9Zm-5.1-1.8v3.5h1.8c1.2,0,2-.6,2-1.7s-.8-1.8-2-1.8Z"/><path class="a3d15c6b-5c90-4346-8642-a116880abbb4" d="M229.8,28h4.4v1.2h-5.7V19.9h1.3Z"/><path class="a3d15c6b-5c90-4346-8642-a116880abbb4" d="M243.5,29.2h-1.4l-.8-1.9h-4.2l-.8,1.9h-1.4l4.3-9.4h0Zm-5.9-3h3.2l-1.6-3.6Z"/><path class="a3d15c6b-5c90-4346-8642-a116880abbb4" d="M252.2,29.3h0L246.4,23v6.2h-1.3V19.8h0l5.8,6.3V19.9h1.3Z"/><path class="a3d15c6b-5c90-4346-8642-a116880abbb4" d="M260.5,21.1H256v2.8h3.9v1.2H256V28h4.6v1.2h-5.8V19.9h5.7Z"/><path class="a3d15c6b-5c90-4346-8642-a116880abbb4" d="M269.4,21.1h-3.2v8.1h-1.3V21.1h-3.2V19.9h7.7Z"/><path class="a3d15c6b-5c90-4346-8642-a116880abbb4" d="M277.1,29.2h-1.4l-.8-1.9h-4.2l-.8,1.9h-1.4l4.3-9.4h0Zm-5.9-3h3.2l-1.6-3.6Z"/><path class="a3d15c6b-5c90-4346-8642-a116880abbb4" d="M285,22.8a2.7,2.7,0,0,1-1.9,2.6l2.3,3.8h-1.5l-2.1-3.5H280v3.5h-1.3V19.9h3C283.6,19.9,285,20.9,285,22.8Zm-5-1.7v3.4h1.6c1.3,0,2.1-.6,2.1-1.7s-.8-1.7-2.1-1.7Z"/><path class="a3d15c6b-5c90-4346-8642-a116880abbb4" d="M290.9,25.3v3.9h-1.3V25.3l-3.4-5.4h1.5l2.6,4.1,2.5-4.1h1.5Z"/><path class="a3d15c6b-5c90-4346-8642-a116880abbb4" d="M188,37.5a2,2,0,0,1-1.1,1.9,2.2,2.2,0,0,1,1.9,2.3c0,1.6-1.3,2.6-3,2.6h-3.9V35h3.2C187,35,188,36,188,37.5Zm-4.9-1.3V39h2a1.4,1.4,0,0,0,1.6-1.4c0-.9-.5-1.4-1.7-1.4Zm0,3.9v3h2.5c1.2,0,1.9-.5,1.9-1.5s-.7-1.5-2-1.5Z"/><path class="a3d15c6b-5c90-4346-8642-a116880abbb4" d="M196.7,37.9a2.6,2.6,0,0,1-1.9,2.6l2.4,3.8h-1.5l-2.2-3.5h-1.8v3.5h-1.3V35h3.1C195.3,35,196.7,36,196.7,37.9Zm-5-1.7v3.4h1.6c1.3,0,2.1-.6,2.1-1.7s-.8-1.7-2.1-1.7Z"/><path class="a3d15c6b-5c90-4346-8642-a116880abbb4" d="M207.3,39.7a4.7,4.7,0,1,1-4.7-4.8A4.6,4.6,0,0,1,207.3,39.7Zm-8.1,0a3.4,3.4,0,1,0,6.8,0,3.4,3.4,0,1,0-6.8,0Z"/><path class="a3d15c6b-5c90-4346-8642-a116880abbb4" d="M216.3,44.3h-1.4l-.8-1.9H210l-.9,1.9h-1.4l4.3-9.4h.1Zm-5.9-3h3.2L212,37.7Z"/><path class="a3d15c6b-5c90-4346-8642-a116880abbb4" d="M225.4,39.6c0,3-1.8,4.7-5,4.7h-2.7V35h2.7C223.6,35,225.4,36.7,225.4,39.6Zm-6.5-3.4v6.9h1.5c2.4,0,3.7-1.3,3.7-3.5s-1.3-3.4-3.7-3.4Z"/><path class="a3d15c6b-5c90-4346-8642-a116880abbb4" d="M234.6,36.2l-.8.9a3.4,3.4,0,0,0-2.5-1.1c-2,0-3.3,1.6-3.3,3.7a3.3,3.3,0,0,0,3.3,3.6,3,3,0,0,0,2.5-1.2l.9,1a4.7,4.7,0,0,1-8-3.4,4.5,4.5,0,0,1,4.6-4.8A4.3,4.3,0,0,1,234.6,36.2Z"/><path class="a3d15c6b-5c90-4346-8642-a116880abbb4" d="M243.7,44.3h-1.4l-.8-1.9h-4.2l-.8,1.9h-1.4l4.3-9.4h0Zm-5.9-3H241l-1.6-3.6Z"/><path class="a3d15c6b-5c90-4346-8642-a116880abbb4" d="M250.6,35.8l-.7,1.1a3.6,3.6,0,0,0-2.3-.9c-1,0-1.8.5-1.8,1.5s.6,1.1,2.1,1.4,3.1,1.3,3.1,2.7-1.3,2.8-3.3,2.8a5.3,5.3,0,0,1-3.4-1.1l.7-1.1a4.4,4.4,0,0,0,2.7,1.1c1.2,0,2-.6,2-1.6s-.6-1.2-2.1-1.5-3.1-1.3-3.1-2.7,1.3-2.6,3.1-2.6A5.3,5.3,0,0,1,250.6,35.8Z"/><path class="a3d15c6b-5c90-4346-8642-a116880abbb4" d="M259.5,36.2h-3.2v8.1H255V36.2h-3.2V35h7.7Z"/><path class="a3d15c6b-5c90-4346-8642-a116880abbb4" d="M271.4,36.2l-.8.9a3.4,3.4,0,0,0-2.4-1.1,3.4,3.4,0,0,0-3.4,3.7,3.4,3.4,0,0,0,3.4,3.6,3.3,3.3,0,0,0,2.5-1.2l.8,1a4.4,4.4,0,0,1-3.3,1.3,4.5,4.5,0,0,1-4.7-4.7,4.5,4.5,0,0,1,4.7-4.8A3.9,3.9,0,0,1,271.4,36.2Z"/><path class="a3d15c6b-5c90-4346-8642-a116880abbb4" d="M281.5,39.7a4.6,4.6,0,0,1-4.7,4.7,4.5,4.5,0,0,1-4.6-4.7,4.5,4.5,0,0,1,4.6-4.8A4.6,4.6,0,0,1,281.5,39.7Zm-8.1,0a3.4,3.4,0,1,0,6.8,0,3.4,3.4,0,1,0-6.8,0Z"/><path class="a3d15c6b-5c90-4346-8642-a116880abbb4" d="M284.4,44.3h-1.3V35h1.3Z"/><path class="a3d15c6b-5c90-4346-8642-a116880abbb4" d="M293.8,44.4h-.1l-5.8-6.3v6.2h-1.2V34.9h0l5.8,6.3V35h1.3Z"/><line class="2c24a52f-d4bd-4a53-90bd-b9b19b962700" x1="169.2" y1="15.8" x2="169.2" y2="48.6"/><path class="820df336-33a4-4eae-ad77-26ba422d5e07" d="M66.6,48.6H58.4V15.8h8.2Z"/><path class="820df336-33a4-4eae-ad77-26ba422d5e07" d="M84,15.8H72.8V48.6H81V38.4h3a11.3,11.3,0,0,0,0-22.6Zm4.2,11.5-6.8,4.2c-.2.1-.4-.1-.4-.3V22.9c0-.2.2-.4.4-.3l6.8,4.2A.3.3,0,0,1,88.2,27.3Z"/><path class="a3d15c6b-5c90-4346-8642-a116880abbb4" d="M150.5,36.5a8,8,0,0,1-7.7,5.2c-5,0-8.5-3.9-8.5-9.5s3.5-9.6,8.5-9.6a8.1,8.1,0,0,1,7.7,5.3l6.9-4.2a16.3,16.3,0,0,0-14.6-8.4c-9.6,0-16.7,7.2-16.7,16.9S133.2,49,142.8,49a16.2,16.2,0,0,0,14.6-8.3Z"/><path class="a3d15c6b-5c90-4346-8642-a116880abbb4" d="M118.3,31.4a8.7,8.7,0,0,0,3.1-6.7,8.8,8.8,0,0,0-8.8-8.9H99.4V48.6h15.8a8.9,8.9,0,0,0,3.1-17.2Zm-10.6-8.2c0-.1.1-.2.3-.1l4.5,2.8c.2,0,.2.2,0,.3L108,29c-.2.1-.3,0-.3-.2Zm6.6,15.7-6.2,3.8c-.2.1-.4-.1-.4-.3V34.8c0-.2.2-.3.4-.2l6.2,3.8A.3.3,0,0,1,114.3,38.9Z"/></svg>